<?xml version="1.0" standalone="no"?><!DOCTYPE svg PUBLIC "-//W3C//DTD SVG 1.1//EN" "http://www.w3.org/Graphics/SVG/1.1/DTD/svg11.dtd"><svg t="1516432223105" class="icon" style="" viewBox="0 0 1024 1024" version="1.1" xmlns="http://www.w3.org/2000/svg" p-id="4564" xmlns:xlink="http://www.w3.org/1999/xlink" width="32" height="32"><defs><style type="text/css"></style></defs><path d="M888.453179 294.513982q-24.508171-24.508171-60.502546-24.50817-6.01506 0-12.989971 0.991845v-0.991845h-3.999375Q801.970692 217.02209 767.960006 170.021434q-31.995001-43.993126-80.979347-74.004437l28.987471-40.985596V49.016341l0.991845-2.015685q0.991845-7.006905 0.991845-10.014435 0-15.9975-10.014435-26.491861t-26.011936-10.49436q-18.013185 0-30.011311 18.013185l-32.986845 47.992502q-52.983721-18.013185-106.991283-18.013186t-106.991283 18.013186l-32.986845-47.992502q-11.998125-18.013185-30.011311-18.013185-15.9975 0-26.011936 10.49436t-10.014435 26.491861q0 11.00628 7.006905 19.00503l26.011936 36.986221q-50.008186 30.011311-82.003187 74.996282-34.010686 47.000656-42.009436 99.984378h-6.01506v0.991845q-6.01506-0.991845-11.998126-0.991845-36.986221 0-60.982471 23.99625t-23.996251 59.990627v268.949976q0 35.994376 23.996251 60.502547t59.990626 24.50817q6.01506 0 12.989971-0.991845v106.991283q0 24.988096 17.501265 42.489361t42.489361 17.501265h36.986221v66.997532q0 35.994376 23.996251 60.502546t60.502546 24.508171 60.502547-24.508171 23.99625-60.502546V872.887611h72.980597v66.005687q0 35.994376 24.50817 60.502546t60.502547 24.508171 60.982471-24.988096q23.996251-23.996251 23.996251-59.990626V871.927761h35.994376q24.988096 0 43.001281-17.501265t18.013185-42.489361v-104.975598q6.01506 0.991845 11.998126 0.991845 35.994376 0 60.502546-24.50817t24.508171-60.502547v-267.958131q0.991845-35.994376-23.484331-60.502547zM209.039338 623.966505q0 11.998125-11.998126 11.998126t-11.998125-11.998126v-268.949976q0-11.998125 11.998125-11.998126t11.998126 11.998126V623.966505z m149.000718-453.913076q66.005687-47.992501 153.991939-47.992501t153.991939 47.992501q55.991251 42.009436 70.996906 99.984378H287.075145q15.005655-58.006936 70.996906-99.984378z m44.984971 770.855554q-0.991845 10.014435-11.998125 10.014435-11.998125 0-11.998125-11.998125V871.927761h23.99625v68.981222z m242.970036 0q-2.015685 10.014435-11.998125 10.014435-12.98997 0-12.98997-11.998125V871.927761h24.988095v68.981222zM742.971911 799.93901H282.051929V343.018403h460.919982V799.93901z m96.976847-175.972505q0 11.998125-12.510045 11.998126t-12.510046-11.998126v-268.949976q0-11.998125 12.510046-11.998126t12.510045 11.998126V623.966505zM584.980597 184.035244q-15.9975 0-26.011936 10.494361t-10.014435 26.49186 10.014435 26.011936 26.011936 10.014435 26.49186-10.014435 10.014436-26.011936-10.494361-26.49186-26.011935-10.494361z m-145.481269 0q-15.48558 0-26.011935 10.494361t-10.494361 26.49186 10.494361 26.011936 26.011935 10.014435 26.011936-10.014435 10.49436-26.011936-10.49436-26.49186-26.011936-10.494361z" p-id="4565"></path></svg>