<?xml version="1.0" standalone="no"?><!DOCTYPE svg PUBLIC "-//W3C//DTD SVG 1.1//EN" "http://www.w3.org/Graphics/SVG/1.1/DTD/svg11.dtd"><svg t="1507901455087" class="icon" style="" viewBox="0 0 1024 1024" version="1.1" xmlns="http://www.w3.org/2000/svg" p-id="597" xmlns:xlink="http://www.w3.org/1999/xlink" width="20" height="20"><defs><style type="text/css"></style></defs><path d="M691.917 249.808c-122.070-122.11-320.031-122.11-442.142 0s-122.11 320.071 0 442.142c122.092 122.101 320.045 122.101 442.142 0.013v-0.013c122.101-122.083 122.101-320.036 0.013-442.129 0-0.005-0.013-0.005-0.013-0.013zM181.74 759.985c-159.645-159.688-159.645-418.557 0-578.251 159.68-159.645 418.536-159.645 578.251 0 159.653 159.694 159.653 418.562 0 578.251-159.715 159.644-418.566 159.644-578.25 0zM945.61 945.643c-21.829 21.798-57.189 21.798-79 0l-78.961-79c-21.803-21.817-21.803-57.163 0-78.966 21.798-21.797 57.144-21.797 78.961 0l79 78.966c21.852 21.851 21.852 57.189 0 79z" p-id="598" fill="#3367D6"></path></svg>