<?xml version="1.0" standalone="no"?><!DOCTYPE svg PUBLIC "-//W3C//DTD SVG 1.1//EN" "http://www.w3.org/Graphics/SVG/1.1/DTD/svg11.dtd"><svg t="1516590895580" class="icon" style="" viewBox="0 0 1024 1024" version="1.1" xmlns="http://www.w3.org/2000/svg" p-id="1960" xmlns:xlink="http://www.w3.org/1999/xlink" width="48" height="48"><defs><style type="text/css"></style></defs><path d="M454.464 654.016l-253.44 253.44c-12.032 12.032-12.032 31.36 0 43.392 11.968 11.968 31.36 11.968 43.328 0l237.376-237.376 237.376 237.376c11.968 11.968 31.36 11.968 43.328 0 12.032-12.032 12.032-31.36 0-43.392l-253.44-253.44C491.264 636.288 478.016 634.304 454.464 654.016zM507.968 436.928l252.48-253.376c11.968-11.968 11.968-31.36 0-43.392-11.968-11.968-31.296-11.968-43.264 0L480.704 377.536 244.16 140.16c-11.968-11.968-31.296-11.968-43.264 0-11.968 12.032-11.968 31.424 0 43.392l252.48 253.376C465.984 449.344 491.136 453.824 507.968 436.928z" p-id="1961" fill="#ffffff"></path></svg>